<?xml version="1.0" encoding="utf-8"?>
<!-- Generator: Adobe Illustrator 23.0.1, SVG Export Plug-In . SVG Version: 6.00 Build 0)  -->
<svg version="1.1" id="Capa_1" xmlns="http://www.w3.org/2000/svg" xmlns:xlink="http://www.w3.org/1999/xlink" x="0px" y="0px"
	 viewBox="0 0 93.7 93.7" enable-background="new 0 0 93.7 93.7" xml:space="preserve">
<g id="background">
</g>
<g>
	<circle fill="#F2F2F2" cx="46.85" cy="47.01" r="45.88"/>
	<g>
		<g>
			<g>
				<g>
					<g>
						<path fill="#343434" d="M67.21,44.37L38.51,26.82l-0.08-0.05c-0.96-0.52-2.11-0.5-3.06,0.06c-0.94,0.56-1.51,1.55-1.51,2.65
							v35.01c0,1.1,0.57,2.09,1.51,2.66c0.48,0.28,1.03,0.44,1.58,0.44c0.51,0,1.02-0.13,1.52-0.4L67.2,49.75
							c0.97-0.55,1.58-1.58,1.58-2.7C68.78,45.94,68.18,44.92,67.21,44.37z M64.74,47.06L37.45,63.64V30.38L64.74,47.06z"/>
						<path fill="#343434" d="M75.4,18.3C67.77,10.68,57.64,6.47,46.85,6.47S25.93,10.68,18.3,18.3S6.47,36.07,6.47,46.85
							s4.2,20.92,11.82,28.55s17.77,11.82,28.55,11.82s20.92-4.2,28.55-11.82c7.63-7.63,11.82-17.77,11.82-28.55
							S83.02,25.93,75.4,18.3z M83.64,46.85c0,9.83-3.82,19.07-10.78,26.01c-6.95,6.95-16.19,10.78-26.01,10.78
							s-19.07-3.82-26.01-10.78c-6.95-6.95-10.78-16.19-10.78-26.01s3.83-19.07,10.78-26.01s16.19-10.78,26.01-10.78
							s19.07,3.83,26.01,10.78S83.64,37.03,83.64,46.85z"/>
					</g>
				</g>
			</g>
		</g>
	</g>
</g>
</svg>
